<svg xmlns="http://www.w3.org/2000/svg" xmlns:svg="http://www.w3.org/2000/svg" id="svg2" width="128" height="128" version="1.0"><metadata id="metadata7"/><g id="layer1" transform="translate(0,112)"><path id="path2819" fill="#777" d="M 56,8 C 29.490333,8 8,29.490333 8,56 c 0,26.509667 21.490333,48 48,48 9.162085,0 17.716988,-2.546 25,-7 l 23,23 c 0,0 8,8 16,0 8,-8 0,-16 0,-16 L 97,81 c 4.454,-7.283012 7,-15.837915 7,-25 C 104,29.490333 82.509667,8 56,8 z m 0,16 C 73.673112,24 88,38.326888 88,56 88,73.673112 73.673112,88 56,88 38.326888,88 24,73.673112 24,56 24,38.326888 38.326888,24 56,24 z" transform="translate(0,-112)"/></g></svg>