<svg xmlns="http://www.w3.org/2000/svg" xmlns:svg="http://www.w3.org/2000/svg" id="svg2" width="128" height="128" version="1.0"><metadata id="metadata7"/><g id="layer1" transform="translate(0,112)"><path id="path3237" fill="#fff" fill-opacity="1" d="M 64 8 C 33.072053 8 8 33.072053 8 64 C 8 94.927944 33.072053 120 64 120 C 94.927944 120 120 94.927944 120 64 C 120 33.072053 94.927944 8 64 8 z M 32 32 L 40 32 L 64 56 L 88 32 L 96 32 L 96 40 L 72 64 L 96 88 L 96 96 L 88 96 L 64 72 L 40 96 L 32 96 L 32 88 L 56 64 L 32 40 L 32 32 z" transform="translate(0,-112)"/></g></svg>