<svg xmlns="http://www.w3.org/2000/svg" xmlns:svg="http://www.w3.org/2000/svg" id="svg2" width="128" height="128" version="1.0"><metadata id="metadata7"/><g id="layer1" transform="translate(0,112)"><path id="path3237" fill="#fff" fill-opacity="1" d="m 64,-104 c -30.927947,0 -56,25.072053 -56,56 0,30.927944 25.072053,56 56,56 30.927944,0 56,-25.072056 56,-56 0,-30.927947 -25.072056,-56 -56,-56 z m -8,16 16,0 0,56 -16,0 0,-56 z m 8,64 c 4.418278,0 8,3.58172 8,8 0,4.41828 -3.581722,8 -8,8 -4.418278,0 -8,-3.58172 -8,-8 0,-4.41828 3.581722,-8 8,-8 z"/></g></svg>